<svg width="173" height="28" viewBox="0 0 173 28" fill="none" xmlns="http://www.w3.org/2000/svg">
  <!-- Emergent Logo - 20px height, width scales proportionally (1185/176 * 20 = 134.6px) -->
  <svg x="0" y="4" width="135" height="20" viewBox="0 0 1185 176">
    <g transform="translate(0,176) scale(0.1,-0.1)" fill="#171717">
      <path d="M712 1377 l-122 -122 0 -498 0 -497 570 0 570 0 0 135 0 135 -435 0 -435 0 0 110 0 110 350 0 350 0 0 130 0 130 -350 0 -350 0 0 110 0 110 435 0 435 0 0 135 0 135 -448 0 -447 0 -123 -123z"/>
      <path d="M1860 880 l0 -620 135 0 135 0 2 412 3 411 210 -251 c160 -192 212 -249 220 -239 6 8 100 122 210 255 l200 242 3 -415 2 -415 130 0 130 0 0 620 0 620 -137 0 -138 -1 -205 -249 c-192 -234 -206 -249 -221 -232 -9 9 -103 122 -208 250 l-192 232 -140 0 -139 0 0 -620z"/>
      <path d="M3450 880 l0 -620 570 0 570 0 0 135 0 135 -435 0 -435 0 0 110 0 110 350 0 350 0 0 130 0 130 -350 0 -350 0 0 110 0 110 435 0 435 0 0 135 0 135 -570 0 -570 0 0 -620z"/>
      <path d="M4760 880 l0 -620 130 0 130 0 0 205 0 205 174 0 174 0 171 -205 171 -205 135 0 135 0 0 48 c0 46 -4 51 -130 202 l-129 155 43 7 c63 9 110 34 152 80 66 74 69 88 69 333 l0 220 -30 55 c-33 60 -96 114 -153 130 -23 6 -224 10 -539 10 l-503 0 0 -620z m960 205 l0 -145 -350 0 -350 0 0 145 0 145 350 0 350 0 0 -145z"/>
      <path d="M6315 1476 c-28 -12 -65 -40 -84 -61 -68 -77 -66 -65 -66 -535 0 -470 -2 -458 66 -535 19 -21 56 -49 84 -61 50 -24 51 -24 465 -24 396 0 417 1 460 21 60 27 98 64 126 124 23 49 24 57 24 313 l0 262 -265 0 -265 0 0 -135 0 -135 135 0 135 0 0 -90 0 -90 -350 0 -350 0 0 350 0 350 350 0 350 0 0 -50 0 -50 130 0 130 0 0 88 c0 134 -46 214 -150 261 -43 20 -64 21 -460 21 -414 0 -415 0 -465 -24z"/>
      <path d="M7590 880 l0 -620 565 0 565 0 0 135 0 135 -435 0 -436 0 3 108 3 107 348 3 347 2 0 130 0 130 -347 2 -348 3 -3 108 -3 107 436 0 435 0 0 135 0 135 -565 0 -565 0 0 -620z"/>
      <path d="M8890 880 l0 -620 130 0 130 0 0 411 c0 234 4 409 9 407 5 -1 161 -186 347 -410 l338 -408 138 0 138 0 0 620 0 620 -135 0 -135 0 -2 -410 -3 -410 -340 410 -340 410 -137 0 -138 0 0 -620z"/>
      <path d="M10250 1365 l0 -135 240 0 240 0 0 -485 0 -485 135 0 135 0 0 485 0 485 125 0 c69 0 125 3 125 8 0 4 -57 65 -128 135 l-127 127 -373 0 -372 0 0 -135z"/>
    </g>
  </svg>

  <!-- Nova GFX Icon - 28x28 with 10px border radius, violet-500 to fuchsia-400 gradient -->
  <!-- Gap of 10px after EMERGENT logo (135 + 10 = 145) -->
  <defs>
    <linearGradient id="novaGrad" x1="0%" y1="0%" x2="100%" y2="100%">
      <stop offset="0%" style="stop-color:#8b5cf6"/>
      <stop offset="100%" style="stop-color:#e879f9"/>
    </linearGradient>
  </defs>
  <rect x="145" y="0" width="28" height="28" rx="10" fill="url(#novaGrad)"/>
  <text x="159" y="19" text-anchor="middle" fill="white" font-family="system-ui, -apple-system, sans-serif" font-size="15" font-weight="700">N</text>
</svg>
